<?xml version="1.0" encoding="utf-8"?>
<!-- Generator: Adobe Illustrator 25.0.1, SVG Export Plug-In . SVG Version: 6.00 Build 0)  -->
<svg version="1.1" id="Outline" xmlns="http://www.w3.org/2000/svg" xmlns:xlink="http://www.w3.org/1999/xlink" x="0px" y="0px"
	 viewBox="0 0 512 512" style="enable-background:new 0 0 512 512;" xml:space="preserve">
<style type="text/css">
	.st0{fill:#4D4D59;}
</style>
<g>
	<path class="st0" d="M490.8,87c-12.1-14.6-30.2-23-49.1-23H96.8l-0.9-7.5C92.1,24.3,64.8,0,32.4,0h-4.7C15.9,0,6.3,9.6,6.3,21.3
		s9.6,21.3,21.3,21.3h4.7c10.8,0,19.9,8.1,21.2,18.8L82.9,311c6.3,53.7,51.8,94.2,105.9,94.2h222.8c11.8,0,21.3-9.6,21.3-21.3
		c0-11.8-9.6-21.3-21.3-21.3H188.8c-27.1-0.1-51.1-17.2-60.2-42.7h254.3c51.6,0,95.8-36.9,105-87.7l16.7-92.9
		C508.1,120.7,503,101.5,490.8,87z M462.8,131.8L446,224.7c-5.5,30.5-32.1,52.7-63.1,52.7h-261l-20.1-170.7h339.9
		c11.8-0.1,21.4,9.4,21.5,21.2C463.2,129.2,463.1,130.5,462.8,131.8z"/>
	<circle class="st0" cx="155.6" cy="469.3" r="42.7"/>
	<circle class="st0" cx="369" cy="469.3" r="42.7"/>
</g>
</svg>
