<?xml version="1.0" encoding="utf-8"?>
<!-- Generator: Adobe Illustrator 25.0.1, SVG Export Plug-In . SVG Version: 6.00 Build 0)  -->
<svg version="1.1" id="레이어_1" xmlns="http://www.w3.org/2000/svg" xmlns:xlink="http://www.w3.org/1999/xlink" x="0px"
	 y="0px" viewBox="0 0 559.1 116.4" style="enable-background:new 0 0 559.1 116.4;" xml:space="preserve">
<style type="text/css">
	.st0{fill:#FFFFFF;}
</style>
<path class="st0" d="M0,116.4C0,116.4,0-3.8,0,0h92.3v26.3H28.7c-0.7,0-1.2,0.2-1.7,0.7s-0.7,1-0.7,1.7v87.7
	C26.3,116.4,0,116.4,0,116.4z"/>
<path class="st0" d="M119.9,112.5c-4.2-2.5-7.6-5.9-10.1-10.1s-3.8-8.8-3.8-13.7v-61c0-5.1,1.3-9.7,3.8-13.8s5.9-7.5,10.1-10
	s8.8-3.8,13.7-3.8h62.8c5.1,0,9.7,1.2,13.9,3.7s7.6,5.8,10,10c2.5,4.2,3.7,8.9,3.7,13.9v43.7h-91.9v16.2c0,0.7,0.2,1.2,0.7,1.7
	s1,0.7,1.7,0.7H224v26.3h-90.5C128.7,116.4,124.1,115.1,119.9,112.5z M132.2,47.7h65.6v-19c0-0.7-0.2-1.2-0.7-1.7s-1-0.7-1.7-0.7
	h-60.8c-0.7,0-1.2,0.2-1.7,0.7s-0.7,1-0.7,1.7V47.7z"/>
<path class="st0" d="M245.3,116.4V0h144.2c5.2,0,9.9,1.3,14,3.8s7.5,5.9,9.9,10c2.5,4.1,3.7,8.8,3.7,13.8v88.7H391V28.7
	c0-0.7-0.3-1.2-0.8-1.7s-1.1-0.7-1.8-0.7h-41.5c-0.7,0-1.2,0.2-1.7,0.7s-0.7,1-0.7,1.7v87.7H318V28.7c0-0.7-0.2-1.2-0.7-1.7
	s-1-0.7-1.7-0.7H274c-0.7,0-1.2,0.2-1.7,0.7s-0.7,1-0.7,1.7v87.7C271.6,116.4,245.3,116.4,245.3,116.4z"/>
<path class="st0" d="M454.9,112.5c-4.2-2.5-7.6-5.9-10.1-10.1s-3.8-8.8-3.8-13.7v-61c0-5.1,1.3-9.7,3.8-13.8s5.9-7.5,10.1-10
	s8.8-3.8,13.7-3.8h62.8c5.1,0,9.7,1.2,13.9,3.7s7.6,5.8,10,10c2.5,4.2,3.7,8.9,3.7,13.9v61c0,4.9-1.2,9.5-3.7,13.7
	s-5.8,7.6-9.9,10.1c-4.1,2.5-8.8,3.8-14,3.8h-62.8C463.7,116.4,459.1,115.1,454.9,112.5z M469.6,90.1h60.8c0.7,0,1.2-0.2,1.7-0.7
	s0.7-1,0.7-1.7v-59c0-0.7-0.2-1.2-0.7-1.7s-1-0.7-1.7-0.7h-60.8c-0.7,0-1.2,0.2-1.7,0.7s-0.7,1-0.7,1.7v59c0,0.7,0.2,1.2,0.7,1.7
	C468.4,89.8,469,90.1,469.6,90.1z"/>
</svg>
